# xmcd CD database file
#
# Track frame offsets:
#	150
#	17443
#	37491
#	55621
#	73638
#	108200
#	123927
#	149569
#	154249
#	180745
#	203063
#	226091
#	259509
#
# Disc length: 3765 seconds
#
# Revision: 0
# Processed by: cddbd v1.4PL0 Copyright (c) Steve Scherf et al.
# Submitted via: CDex 1.50
#
DISCID=ae0eb30d
DTITLE=Ian Parker - Inside
DYEAR=2003
DGENRE=Blues
TTITLE0=She Cries
TTITLE1=Misfits and Fools
TTITLE2=Burden of Pain
TTITLE3=Funy How
TTITLE4=Sometimes I Wonder
TTITLE5=Scared To Lose This Love
TTITLE6=The Love I Have
TTITLE7='z' Madness
TTITLE8=Dear Lord
TTITLE9=Feeling Whole Again
TTITLE10=Meant To Be
TTITLE11=Awake At Night
TTITLE12=Everything and More
EXTD=YEAR: 2003
EXTT0=
EXTT1=
EXTT2=
EXTT3=
EXTT4=
EXTT5=
EXTT6=
EXTT7=
EXTT8=
EXTT9=
EXTT10=
EXTT11=
EXTT12=
PLAYORDER=
